<?xml version="1.0" standalone="no"?>
<!DOCTYPE svg PUBLIC "-//W3C//DTD SVG 20010904//EN"
 "http://www.w3.org/TR/2001/REC-SVG-20010904/DTD/svg10.dtd">
<svg version="1.0" xmlns="http://www.w3.org/2000/svg"
 width="336.000000pt" height="336.000000pt" viewBox="0 0 336.000000 336.000000"
 preserveAspectRatio="xMidYMid meet">
<metadata>
Created by potrace 1.14, written by Peter Selinger 2001-2017
</metadata>
<g transform="translate(0.000000,336.000000) scale(0.100000,-0.100000)"
fill="#000000" stroke="none">
<path d="M1260 3150 l0 -70 -70 0 -70 0 0 -140 0 -140 -70 0 -70 0 0 -140 0
-140 -70 0 -70 0 0 -420 0 -420 -70 0 -70 0 0 -210 0 -210 70 0 70 0 0 -630 0
-630 350 0 350 0 0 140 0 140 280 0 280 0 0 70 0 70 70 0 70 0 0 70 0 70 70 0
70 0 0 980 0 980 -70 0 -70 0 0 140 0 140 -70 0 -70 0 0 140 0 140 -70 0 -70
0 0 70 0 70 -70 0 -70 0 0 -70 0 -70 -70 0 -70 0 0 70 0 70 -70 0 -70 0 0 -70
0 -70 -70 0 -70 0 0 70 0 70 -70 0 -70 0 0 -70z"/>
</g>
</svg>
