<svg width="28" height="28" viewBox="0 0 28 28" fill="none" xmlns="http://www.w3.org/2000/svg">
<path shape-rendering="auto" d="M14 0C11.2311 0 8.52431 0.821086 6.22202 2.35943C3.91973 3.89777 2.12532 6.08427 1.06569 8.64243C0.00606592 11.2006 -0.271181 14.0155 0.269012 16.7313C0.809205 19.447 2.14258 21.9416 4.10051 23.8995C6.05845 25.8574 8.55301 27.1908 11.2687 27.731C13.9845 28.2712 16.7994 27.9939 19.3576 26.9343C21.9157 25.8747 24.1022 24.0803 25.6406 21.778C27.1789 19.4757 28 16.7689 28 14C27.9958 10.2883 26.5194 6.72977 23.8948 4.10518C21.2702 1.48059 17.7117 0.00423472 14 0ZM11.884 19.4147L6.94267 14.4733L8.35734 13.0667L11.884 16.592L19.6427 8.82667L21.0573 10.24L11.884 19.4147Z" fill="#2CF6B3" />
</svg>
